# xmcd CD database file
#
# Track frame offsets:
#	150
#	12763
#	26078
#	38053
#	52365
#	63578
#	77653
#	89333
#	100418
#	112408
#	125678
#	136063
#	147488
#	159375
#
# Disc length: 2297 seconds
#
# Revision: 0
# Processed by: cddbd v1.4PL0 Copyright (c) Steve Scherf et al.
# Submitted via: CDex 1.50Beta7
#
DISCID=c908f70e
DTITLE=ANDY WILLIAMS - THE SUPER ARTIST GOLDEN SERIES -ANDY WILLIAMS-
DYEAR=1900
DGENRE=Jazz
TTITLE0=MOON RIVER
TTITLE1=DANNY BOY
TTITLE2=SUMMER PLACE
TTITLE3=AS TIME GOSE BY
TTITLE4=THE HAWAIIAN WEDDING SONG
TTITLE5=THE SHADOW OF YOUR SMILE
TTITLE6=CHARADE
TTITLE7=RED ROSE FOR A BLUE LADY
TTITLE8=CHANADIAN SUNSET
TTITLE9=THREE COINS IN THE FOUNTAIN
TTITLE10=I COULD HAVE DANCED ALL NIGHT
TTITLE11=MORE
TTITLE12=TONIGHT
TTITLE13=LOVE IS A MANY-SPLENDORED THINGS
EXTD=
EXTT0=
EXTT1=
EXTT2=
EXTT3=
EXTT4=
EXTT5=
EXTT6=
EXTT7=
EXTT8=
EXTT9=
EXTT10=
EXTT11=
EXTT12=
EXTT13=
PLAYORDER=
